PathFileType	4	(X/Y/Z)	C:/Users/beibeiliu/ov580/test_trc\sequence.42_training_dense_left.trc
DataRate	CameraRate	NumFrames	NumMarkers	Units	OrigDataRate	OrigDataStartFrame	OrigNumFrames
120	120	8	19	mm	120	1	95
Frame#	Time	ThumbCMC			ThumbMCP			ThumbIP			ThumbTip			IndexMCP			IndexPIP			IndexTip			MiddleMCP			MiddlePIP			MiddleTip			RingMCP			RingPIP			RingTip			PinkyMCP			PinkyPIP			PinkyTip			BackHand1			BackHand2			BackHand3	
		X0	Y0	Z0	X1	Y1	Z1	X2	Y2	Z2	X3	Y3	Z3	X4	Y4	Z4	X5	Y5	Z5	X6	Y6	Z6	X7	Y7	Z7	X8	Y8	Z8	X9	Y9	Z9	X10	Y10	Z10	X11	Y11	Z11	X12	Y12	Z12	X13	Y13	Z13	X14	Y14	Z14	X15	Y15	Z15	X16	Y16	Z16	X17	Y17	Z17	X18	Y18	Z18	
0	0	-226.912	60.2174	139.372	-222.071	71.2021	107.213	-230.65	74.6391	78.1361	-241.011	56.3827	54.4583	-263.309	71.6915	75.9269	-257.773	84.954	56.2335	-255.677	96.8471	28.2982	-262.537	47.8747	61.183	-257.681	52.619	35.8437	-251.33	57.3424	7.73336	-236.143	38.4811	60.7253	-208.537	45.5044	64.0732	-204.376	41.8465	98.3447	-226.388	18.4904	65.2414	-203.377	28.7262	73.7041	-198.898	36.4407	105.168	-260.879	12.5603	106.441	-249.178	1.77906	140.178	-259.625	36.0141	134.126	
1	0.00833333	-213.248	62.8958	139.444	-206.62	75.4845	109.44	-215.496	75.5707	83.3984	-227.874	64.5469	59.0701	-245.681	85.0766	77.1083	-238.001	96.3811	54.0838	-232.736	104.986	28.7953	-251.1	64.2736	61.8434	-246.138	67.399	41.0641	-237.578	70.4072	10.0941	-229.679	42.4252	61.7188	-199.827	47.1221	66.1436	-196.617	41.4309	103.698	-227.866	25.4599	68.9023	-196.049	29.4222	79.3167	-192.882	30.4213	108.337	-256.379	23.8317	110.687	-250.161	15.1891	140.001	-249.266	50.4486	135.091	
2	0.0166667	-195.225	60.4309	140.415	-185.715	69.9819	111.745	-194.977	76.9014	79.5101	-207.772	68.5957	63.1739	-217.053	97.0901	75.7578	-210.681	99.5905	55.7442	-202.508	109.037	33.6176	-235.096	71.7654	64.766	-227.184	75.1799	39.6938	-217.446	77.493	12.1576	-220.278	51.411	64.8829	-187.634	40.9396	68.7311	-186.852	34.6137	101.487	-222.294	29.6706	67.0752	-193.404	23.5836	78.4894	-192.874	26.4367	108.353	-250.975	38.012	110.964	-244.478	28.0323	140.201	-234.257	58.4097	137.276	
3	0.025	-178.6	57.9414	136.284	-170.22	59.1819	108.652	-174.685	65.6361	80.5852	-187.314	62.6636	61.3914	-192.46	89.506	72.3595	-179.492	94.4363	51.0354	-176.393	92.6891	29.1618	-213.727	72.655	64.4326	-205.865	70.0094	35.3812	-196.692	64.9607	9.07341	-204.543	46.7686	62.95	-179.407	27.3666	68.3715	-175.767	23.854	98.238	-215.029	30.9159	70.9796	-187.74	18.1106	80.0831	-187.108	18.8242	112.219	-237.861	47.9403	108.4	-239.16	34.6683	138.543	-217.118	64.9743	133.802	
4	0.0333333	-167.713	42.4561	138.802	-154.788	44.2535	107.383	-154.419	48.0823	80.1675	-169.776	46.444	57.7019	-168.278	74.882	72.7596	-158.076	72.3486	51.8762	-147.971	71.1037	28.1661	-191.126	62.2018	56.2254	-182.357	53.6296	31.9691	-175.666	45.0483	9.93015	-194.772	29.647	63.4879	-169.699	9.48213	72.7104	-171.905	8.8088	105.827	-205.201	15.3074	70.9031	-182.688	4.90464	83.9567	-182.552	8.92119	116.99	-225.584	47.5679	107.564	-224.315	41.544	138.468	-200.176	60.0775	130.81	
5	0.0416667	-156.81	31.6921	136.242	-143.905	26.7219	110.488	-145.35	28.969	80.2683	-156.323	26.7653	58.0574	-149.887	54.509	72.3044	-140.72	45.8263	46.485	-130.042	42.1238	27.8506	-177.836	41.3067	55.6691	-168.42	32.205	34.2488	-162.985	16.1951	10.7002	-185.697	13.8469	64.6753	-167.17	-10.9601	77.1162	-167.696	-8.48918	107.827	-197.289	5.15686	72.9238	-179.335	-10.3606	87.0555	-179.782	-1.71136	119.161	-210.364	42.5958	109.797	-215.268	36.9331	138.577	-183.08	52.8119	130.71	
6	0.05	-148.028	23.248	138.757	-134.996	15.2429	111.824	-136.803	12.799	86.9522	-148.713	12.2648	63.4845	-141.714	37.8345	66.8789	-129.505	30.3619	52.7094	-122.175	22.0652	28.634	-169.334	27.0167	55.783	-160.025	16.9155	38.2209	-152.996	-1.34587	12.1523	-176.877	6.17101	68.4726	-163.747	-21.6022	79.4492	-160.994	-15.0429	114.974	-193.569	-6.81481	75.5807	-175.182	-21.6852	96.3855	-175.099	-8.43975	123.445	-200.796	34.5182	109.86	-209.945	32.3165	139.635	-178.383	45.5417	130.862	
7	0.0583333	-145.911	18.4016	144.74	-131.646	9.43488	116.618	-131.181	9.85023	84.2753	-142.977	6.9734	62.6686	-136.737	33.5396	69.3736	-122.36	22.8216	50.2625	-118.056	15.1195	29.6616	-163.095	22.231	57.2266	-156.01	9.56696	38.9901	-144.158	-9.25666	13.1926	-172.254	0.245585	69.3203	-162.918	-28.1294	83.0037	-161.016	-22.7207	115.026	-188.152	-12.3524	76.1232	-173.441	-25.5697	95.3495	-172.572	-8.88518	126.1	-202.264	30.0409	108.673	-206.358	30.1744	137.753	-172.123	43.9229	130.888	
